<svg xmlns="http://www.w3.org/2000/svg" viewBox="0 0 500 500"><defs><style>.a{fill:#fff;}</style></defs><path class="a" d="M443,185.11a84.6,84.6,0,0,0-23.66-23.17c-13.14-8.86-27.41-14.67-43.32-16.18a102.71,102.71,0,0,0-40.34,3.85A169.92,169.92,0,0,0,305,163a216.35,216.35,0,0,0-38.18,26.66c-6.24,5.36-12.48,10.72-18.65,16.17-1.16,1-2,1-2.92-.06a3.78,3.78,0,0,0-.41-.39,319.32,319.32,0,0,0-32.63-26.52c-15.55-11-31.83-20.69-49.93-27-11.39-4-23-7-32.65-6.81-7.83-.08-13.13,0-18.36,1A90.94,90.94,0,0,0,82.72,156.5,70.87,70.87,0,0,0,62.09,174c-5.71,7.22-9.08,15.51-11.18,24.39-1,4.43-2,8.89-1.62,13.45a70.36,70.36,0,0,0,8.31,27.19c3.91,7.47,9.73,13.35,15.87,18.91,9.82,8.89,21.28,15,33.82,19.07a93.55,93.55,0,0,0,22.4,4.79,92.36,92.36,0,0,0,36.4-4.9,214.45,214.45,0,0,0,42-19.54,238.15,238.15,0,0,0,34.27-25.09q5.28-4.64,10.46-9.39a1.19,1.19,0,0,1,1.9,0c1.15,1.05,2.4,2,3.56,3a314.1,314.1,0,0,0,27.92,22c7.91,5.64,16.41,10.26,25,14.83,12,6.42,24.31,12,37.55,15.33,6.46,1.63,12.85,3.56,19.57,3.8,14.31.52,28.27-1.2,41.61-6.74,12.9-5.35,23.86-13.24,32.06-24.65,6.56-9.14,10.55-19.33,11-30.63A56.88,56.88,0,0,0,443,185.11Zm-201.2,26.95a260,260,0,0,1-24,20.4c-5.14,3.88-10.24,7.8-15.65,11.27-10,6.38-20.18,12.41-31.26,16.82A198.87,198.87,0,0,1,142.15,270,77.23,77.23,0,0,1,125,271.81c-11.35-.12-22.85-2-33.43-7.65C76.44,256,66.88,243.6,64,226.49c-3.18-19.1,2.72-35.3,16.25-48.94,11.18-11.27,24.77-17.89,40.22-20.93a95,95,0,0,1,19.84-2c8.12.13,15.91,2,23.59,4.44,8.89,2.87,17.2,7,25.37,11.51a185.39,185.39,0,0,1,25.1,16.18c5.2,4.05,10.43,8.09,15.38,12.5q6.09,5.42,12.06,11C242.63,211,242.62,211.31,241.84,212.06Zm182,35.68c-8.08,8.85-18,14.92-29.16,19a84.89,84.89,0,0,1-29.78,5.33c-10.6,0-21.72-2.55-32.6-6.22-20.07-6.78-37.89-17.49-54.41-30.65-6.45-5.13-12.53-10.62-18.51-16.25-.6-.56-1.09-.92-.2-1.75,8-7.54,16-15.2,24.64-22,13.14-10.34,27-19.67,42-27C339.2,161.63,353.2,156.9,368,155c8.58-1.09,17.08,0,25.49,1.83a63.37,63.37,0,0,1,26.2,11.92c10.76,8.51,17.24,19.55,18.93,33.22C440.81,219.52,435.66,234.74,423.8,247.74Z"/><path class="a" d="M102.18,318.1H92.05v-3h13.86V337h-3.73Zm-1.49-10.49a3,3,0,1,1,3,2.88A2.81,2.81,0,0,1,100.69,307.61Z"/><path class="a" d="M119.19,315.08h3.06l.31,3.69h.18c2.3-2.38,4.82-4.23,8.24-4.23,5.17,0,7.56,3.06,7.56,8.82V337H134.8V323.86c0-4.14-1.44-6.08-5-6.08-2.61,0-4.37,1.31-6.89,3.92V337h-3.73Z"/><path class="a" d="M145.6,326.06c0-7.33,5.58-11.52,12.2-11.52a11.09,11.09,0,0,1,8,3.2l-1.84,2.38a9,9,0,0,0-6-2.47c-5,0-8.5,3.37-8.5,8.41s3.42,8.33,8.41,8.33a10.4,10.4,0,0,0,6.75-2.75l1.67,2.43a13,13,0,0,1-8.69,3.42C150.73,337.49,145.6,333.31,145.6,326.06Z"/><path class="a" d="M171.7,326.06c0-7.33,5-11.52,10.8-11.52s10.8,4.19,10.8,11.52-5,11.43-10.8,11.43S171.7,333.31,171.7,326.06Zm17.78,0c0-5-2.79-8.41-7-8.41s-7,3.37-7,8.41,2.79,8.33,7,8.33S189.48,331.06,189.48,326.06Z"/><path class="a" d="M198.7,326.06c0-7.11,4.73-11.52,9.9-11.52a9.42,9.42,0,0,1,6.57,2.79h.09l-.18-4v-8.42h3.73v32h-3.06l-.31-2.88h-.14a10.46,10.46,0,0,1-7.15,3.42C202.48,337.49,198.7,333.35,198.7,326.06Zm16.38,5V320.21a8.14,8.14,0,0,0-5.72-2.52c-3.78,0-6.83,3.33-6.83,8.33,0,5.22,2.43,8.32,6.43,8.32C211.12,334.34,213.15,333.26,215.08,331.1Z"/><path class="a" d="M237.17,318.1H227.05v-3h13.86V337h-3.74Zm-1.48-10.49a3,3,0,1,1,3,2.88A2.81,2.81,0,0,1,235.69,307.61Z"/><path class="a" d="M259.27,328.45V318.1h-6.21v-2.79l6.34-.23.5-7H263v7h10.71v3H263v10.39c0,3.92,1.31,5.94,5.54,5.94a14.32,14.32,0,0,0,5.22-1l.81,2.75a19.1,19.1,0,0,1-6.84,1.3C261.34,337.49,259.27,333.85,259.27,328.45Z"/><path class="a" d="M280,345.91l.77-3a7,7,0,0,0,2,.31c3.06,0,4.91-1.93,6-4.63l.63-1.62-10.16-21.92H283l5.31,12.06c.86,1.94,1.8,4.23,2.7,6.35h.18c.77-2.07,1.62-4.37,2.34-6.35l4.73-12.06h3.6l-9.68,23.67c-1.62,4.32-4.27,7.61-9.27,7.61A9.26,9.26,0,0,1,280,345.91Z"/><path class="a" d="M313.85,333.67a3.65,3.65,0,1,1,3.65,3.82A3.65,3.65,0,0,1,313.85,333.67Z"/><path class="a" d="M334.6,326.06c0-7.33,5.58-11.52,12.19-11.52a11.1,11.1,0,0,1,8,3.2l-1.85,2.38a9,9,0,0,0-6-2.47c-5,0-8.51,3.37-8.51,8.41s3.42,8.33,8.42,8.33a10.4,10.4,0,0,0,6.75-2.75l1.66,2.43a13,13,0,0,1-8.68,3.42C339.73,337.49,334.6,333.31,334.6,326.06Z"/><path class="a" d="M360.7,326.06c0-7.33,5-11.52,10.8-11.52s10.8,4.19,10.8,11.52-5,11.43-10.8,11.43S360.7,333.31,360.7,326.06Zm17.77,0c0-5-2.79-8.41-7-8.41s-7,3.37-7,8.41,2.79,8.33,7,8.33S378.47,331.06,378.47,326.06Z"/><path class="a" d="M387.61,315.08h3l.31,2.88H391c1.13-2,2.48-3.42,5-3.42,2.16,0,3.51,1.26,4.14,3.78,1.26-2.34,2.61-3.78,5.13-3.78,3.06,0,4.86,2.39,4.86,6.75V337h-3.69V321.56c0-2.52-.72-3.82-2.34-3.82s-2.34,1.12-3.51,3.37V337h-3.42V321.56c0-2.52-.63-3.82-2.25-3.82s-2.52,1.12-3.6,3.37V337h-3.69Z"/></svg>